<mxfile host="app.diagrams.net" modified="2023-12-06T14:55:51.876Z" agent="Mozilla/5.0 (Windows NT 10.0; Win64; x64) AppleWebKit/537.36 (KHTML, like Gecko) Chrome/119.0.0.0 Safari/537.36" etag="VvoVc5MyyVkHFP91V5zX" version="22.1.5" type="device">
  <diagram name="Page-1" id="c37626ed-c26b-45fb-9056-f9ebc6bb27b6">
    <mxGraphModel dx="1912" dy="1056" grid="0" gridSize="10" guides="1" tooltips="1" connect="1" arrows="1" fold="1" page="0" pageScale="1" pageWidth="1100" pageHeight="850" background="none" math="0" shadow="0">
      <root>
        <mxCell id="0" />
        <mxCell id="1" parent="0" />
        <mxCell id="1c7a67bf8fd3230f-83" value="Rede 1" style="whiteSpace=wrap;html=1;rounded=0;shadow=0;comic=0;strokeWidth=1;fontFamily=Verdana;fontSize=14;fillColor=#f5f5f5;strokeColor=none;verticalAlign=top;fontStyle=1" parent="1" vertex="1">
          <mxGeometry x="120" y="246" width="660" height="474" as="geometry" />
        </mxCell>
        <mxCell id="1c7a67bf8fd3230f-81" value="Rede 3" style="whiteSpace=wrap;html=1;rounded=0;shadow=0;comic=0;strokeWidth=1;fontFamily=Verdana;fontSize=14;fillColor=#f5f5f5;strokeColor=none;fontStyle=1;verticalAlign=top;align=left;" parent="1" vertex="1">
          <mxGeometry x="690" y="730" width="440" height="480" as="geometry" />
        </mxCell>
        <mxCell id="1c7a67bf8fd3230f-80" value="Rede 2" style="whiteSpace=wrap;html=1;rounded=0;shadow=0;comic=0;strokeWidth=1;fontFamily=Verdana;fontSize=14;fillColor=#f5f5f5;strokeColor=none;fontStyle=1;verticalAlign=top;" parent="1" vertex="1">
          <mxGeometry x="1010" y="230" width="550" height="480" as="geometry" />
        </mxCell>
        <mxCell id="QoExW9OHOlBCBGar14nM-3" value="Server-PT&lt;br&gt;Servidor DHCP&lt;br&gt;192.168.10.2" style="shape=mxgraph.cisco.servers.fileserver;sketch=0;html=1;pointerEvents=1;dashed=0;fillColor=#036897;strokeColor=#ffffff;strokeWidth=2;verticalLabelPosition=bottom;verticalAlign=top;align=center;outlineConnect=0;" vertex="1" parent="1">
          <mxGeometry x="300" y="278" width="43" height="62" as="geometry" />
        </mxCell>
        <mxCell id="QoExW9OHOlBCBGar14nM-4" value="Server-PT&lt;br&gt;Servidor DNS&lt;br&gt;192.168.10.3" style="shape=mxgraph.cisco.servers.fileserver;sketch=0;html=1;pointerEvents=1;dashed=0;fillColor=#036897;strokeColor=#ffffff;strokeWidth=2;verticalLabelPosition=bottom;verticalAlign=top;align=center;outlineConnect=0;" vertex="1" parent="1">
          <mxGeometry x="428.5" y="278" width="43" height="62" as="geometry" />
        </mxCell>
        <mxCell id="QoExW9OHOlBCBGar14nM-5" value="Server-PT&lt;br&gt;Servidor HTTP&lt;br&gt;192.168.10.4" style="shape=mxgraph.cisco.servers.fileserver;sketch=0;html=1;pointerEvents=1;dashed=0;fillColor=#036897;strokeColor=#ffffff;strokeWidth=2;verticalLabelPosition=bottom;verticalAlign=top;align=center;outlineConnect=0;" vertex="1" parent="1">
          <mxGeometry x="647" y="270" width="43" height="62" as="geometry" />
        </mxCell>
        <mxCell id="QoExW9OHOlBCBGar14nM-6" value="AccessPoint-PT&lt;br&gt;Access Point0&lt;br&gt;SSID: rede1" style="shape=mxgraph.cisco.misc.access_point;sketch=0;html=1;pointerEvents=1;dashed=0;fillColor=#036897;strokeColor=#ffffff;strokeWidth=2;verticalLabelPosition=bottom;verticalAlign=top;align=center;outlineConnect=0;" vertex="1" parent="1">
          <mxGeometry x="160" y="462.5" width="60" height="30" as="geometry" />
        </mxCell>
        <mxCell id="QoExW9OHOlBCBGar14nM-46" style="rounded=0;orthogonalLoop=1;jettySize=auto;html=1;endArrow=none;endFill=0;" edge="1" parent="1" source="QoExW9OHOlBCBGar14nM-7" target="QoExW9OHOlBCBGar14nM-3">
          <mxGeometry relative="1" as="geometry" />
        </mxCell>
        <mxCell id="QoExW9OHOlBCBGar14nM-48" style="edgeStyle=orthogonalEdgeStyle;rounded=0;orthogonalLoop=1;jettySize=auto;html=1;endArrow=none;endFill=0;" edge="1" parent="1" source="QoExW9OHOlBCBGar14nM-7" target="QoExW9OHOlBCBGar14nM-6">
          <mxGeometry relative="1" as="geometry" />
        </mxCell>
        <mxCell id="QoExW9OHOlBCBGar14nM-50" style="rounded=0;orthogonalLoop=1;jettySize=auto;html=1;endArrow=none;endFill=0;" edge="1" parent="1" source="QoExW9OHOlBCBGar14nM-7" target="QoExW9OHOlBCBGar14nM-11">
          <mxGeometry relative="1" as="geometry" />
        </mxCell>
        <mxCell id="QoExW9OHOlBCBGar14nM-55" style="rounded=0;orthogonalLoop=1;jettySize=auto;html=1;endArrow=none;endFill=0;" edge="1" parent="1" source="QoExW9OHOlBCBGar14nM-7" target="QoExW9OHOlBCBGar14nM-12">
          <mxGeometry relative="1" as="geometry" />
        </mxCell>
        <mxCell id="QoExW9OHOlBCBGar14nM-56" style="rounded=0;orthogonalLoop=1;jettySize=auto;html=1;endArrow=none;endFill=0;" edge="1" parent="1" source="QoExW9OHOlBCBGar14nM-7" target="QoExW9OHOlBCBGar14nM-9">
          <mxGeometry relative="1" as="geometry" />
        </mxCell>
        <mxCell id="QoExW9OHOlBCBGar14nM-57" style="rounded=0;orthogonalLoop=1;jettySize=auto;html=1;endArrow=none;endFill=0;" edge="1" parent="1" source="QoExW9OHOlBCBGar14nM-7" target="QoExW9OHOlBCBGar14nM-10">
          <mxGeometry relative="1" as="geometry" />
        </mxCell>
        <mxCell id="QoExW9OHOlBCBGar14nM-7" value="Switch 2950-24&lt;br&gt;Switch0" style="shape=mxgraph.cisco.switches.workgroup_switch;sketch=0;html=1;pointerEvents=1;dashed=0;fillColor=#036897;strokeColor=#ffffff;strokeWidth=2;verticalLabelPosition=bottom;verticalAlign=top;align=center;outlineConnect=0;" vertex="1" parent="1">
          <mxGeometry x="426.5" y="462.5" width="70" height="30" as="geometry" />
        </mxCell>
        <mxCell id="QoExW9OHOlBCBGar14nM-9" value="PC-PT&lt;br&gt;PC1&lt;br&gt;192.168.10.6" style="shape=mxgraph.cisco.computers_and_peripherals.pc;sketch=0;html=1;pointerEvents=1;dashed=0;fillColor=#036897;strokeColor=#ffffff;strokeWidth=2;verticalLabelPosition=bottom;verticalAlign=top;align=center;outlineConnect=0;" vertex="1" parent="1">
          <mxGeometry x="511" y="570" width="78" height="70" as="geometry" />
        </mxCell>
        <mxCell id="QoExW9OHOlBCBGar14nM-10" value="PC-PT&lt;br&gt;PC0&lt;br&gt;192.168.10.5" style="shape=mxgraph.cisco.computers_and_peripherals.pc;sketch=0;html=1;pointerEvents=1;dashed=0;fillColor=#036897;strokeColor=#ffffff;strokeWidth=2;verticalLabelPosition=bottom;verticalAlign=top;align=center;outlineConnect=0;" vertex="1" parent="1">
          <mxGeometry x="622" y="568" width="78" height="70" as="geometry" />
        </mxCell>
        <mxCell id="QoExW9OHOlBCBGar14nM-11" value="7960&lt;br&gt;IP Phone 1&lt;br&gt;192.168.11.6&lt;br&gt;ramal 100" style="shape=mxgraph.cisco.modems_and_phones.ip_phone;sketch=0;html=1;pointerEvents=1;dashed=0;fillColor=#036897;strokeColor=#ffffff;strokeWidth=2;verticalLabelPosition=bottom;verticalAlign=top;align=center;outlineConnect=0;" vertex="1" parent="1">
          <mxGeometry x="284.5" y="588" width="90" height="50" as="geometry" />
        </mxCell>
        <mxCell id="QoExW9OHOlBCBGar14nM-12" value="7960&lt;br&gt;IP Phone0&lt;br&gt;192.168.11.5&lt;br&gt;ramal 101" style="shape=mxgraph.cisco.modems_and_phones.ip_phone;sketch=0;html=1;pointerEvents=1;dashed=0;fillColor=#036897;strokeColor=#ffffff;strokeWidth=2;verticalLabelPosition=bottom;verticalAlign=top;align=center;outlineConnect=0;" vertex="1" parent="1">
          <mxGeometry x="393" y="588" width="90" height="50" as="geometry" />
        </mxCell>
        <mxCell id="QoExW9OHOlBCBGar14nM-13" value="SMARTPHONE-PT&lt;br&gt;Smartphone0" style="shape=mxgraph.cisco.modems_and_phones.cell_phone;sketch=0;html=1;pointerEvents=1;dashed=0;fillColor=#036897;strokeColor=#ffffff;strokeWidth=2;verticalLabelPosition=bottom;verticalAlign=top;align=center;outlineConnect=0;" vertex="1" parent="1">
          <mxGeometry x="165" y="246" width="34" height="58" as="geometry" />
        </mxCell>
        <mxCell id="QoExW9OHOlBCBGar14nM-14" value="SMARTPHONE-PT&lt;br&gt;Smartphone1" style="shape=mxgraph.cisco.modems_and_phones.cell_phone;sketch=0;html=1;pointerEvents=1;dashed=0;fillColor=#036897;strokeColor=#ffffff;strokeWidth=2;verticalLabelPosition=bottom;verticalAlign=top;align=center;outlineConnect=0;" vertex="1" parent="1">
          <mxGeometry x="165" y="622" width="34" height="58" as="geometry" />
        </mxCell>
        <mxCell id="QoExW9OHOlBCBGar14nM-58" style="rounded=0;orthogonalLoop=1;jettySize=auto;html=1;dashed=1;endArrow=none;endFill=0;" edge="1" parent="1" source="QoExW9OHOlBCBGar14nM-15" target="QoExW9OHOlBCBGar14nM-16">
          <mxGeometry relative="1" as="geometry" />
        </mxCell>
        <mxCell id="QoExW9OHOlBCBGar14nM-15" value="2811&lt;br&gt;Router0" style="shape=mxgraph.cisco.routers.router;sketch=0;html=1;pointerEvents=1;dashed=0;fillColor=#036897;strokeColor=#ffffff;strokeWidth=2;verticalLabelPosition=bottom;verticalAlign=top;align=center;outlineConnect=0;" vertex="1" parent="1">
          <mxGeometry x="746" y="451" width="78" height="53" as="geometry" />
        </mxCell>
        <mxCell id="QoExW9OHOlBCBGar14nM-67" style="rounded=0;orthogonalLoop=1;jettySize=auto;html=1;endArrow=none;endFill=0;" edge="1" parent="1" source="QoExW9OHOlBCBGar14nM-16" target="QoExW9OHOlBCBGar14nM-18">
          <mxGeometry relative="1" as="geometry" />
        </mxCell>
        <mxCell id="QoExW9OHOlBCBGar14nM-16" value="2811&lt;br&gt;Router1" style="shape=mxgraph.cisco.routers.router;sketch=0;html=1;pointerEvents=1;dashed=0;fillColor=#036897;strokeColor=#ffffff;strokeWidth=2;verticalLabelPosition=bottom;verticalAlign=top;align=center;outlineConnect=0;" vertex="1" parent="1">
          <mxGeometry x="990" y="451" width="78" height="53" as="geometry" />
        </mxCell>
        <mxCell id="QoExW9OHOlBCBGar14nM-17" value="AccessPoint-PT&lt;br&gt;Access Point 1&lt;br&gt;SSID: rede2" style="shape=mxgraph.cisco.misc.access_point;sketch=0;html=1;pointerEvents=1;dashed=0;fillColor=#036897;strokeColor=#ffffff;strokeWidth=2;verticalLabelPosition=bottom;verticalAlign=top;align=center;outlineConnect=0;" vertex="1" parent="1">
          <mxGeometry x="1450" y="462.5" width="60" height="30" as="geometry" />
        </mxCell>
        <mxCell id="QoExW9OHOlBCBGar14nM-73" style="rounded=0;orthogonalLoop=1;jettySize=auto;html=1;endArrow=none;endFill=0;" edge="1" parent="1" source="QoExW9OHOlBCBGar14nM-18" target="QoExW9OHOlBCBGar14nM-19">
          <mxGeometry relative="1" as="geometry" />
        </mxCell>
        <mxCell id="QoExW9OHOlBCBGar14nM-77" style="rounded=0;orthogonalLoop=1;jettySize=auto;html=1;endArrow=none;endFill=0;" edge="1" parent="1" source="QoExW9OHOlBCBGar14nM-18" target="QoExW9OHOlBCBGar14nM-22">
          <mxGeometry relative="1" as="geometry" />
        </mxCell>
        <mxCell id="QoExW9OHOlBCBGar14nM-79" style="rounded=0;orthogonalLoop=1;jettySize=auto;html=1;endArrow=none;endFill=0;" edge="1" parent="1" source="QoExW9OHOlBCBGar14nM-18" target="QoExW9OHOlBCBGar14nM-21">
          <mxGeometry relative="1" as="geometry" />
        </mxCell>
        <mxCell id="QoExW9OHOlBCBGar14nM-18" value="2950-24&lt;br&gt;Switch1&lt;br&gt;" style="shape=mxgraph.cisco.switches.workgroup_switch;sketch=0;html=1;pointerEvents=1;dashed=0;fillColor=#036897;strokeColor=#ffffff;strokeWidth=2;verticalLabelPosition=bottom;verticalAlign=top;align=center;outlineConnect=0;" vertex="1" parent="1">
          <mxGeometry x="1220" y="462.5" width="70" height="30" as="geometry" />
        </mxCell>
        <mxCell id="QoExW9OHOlBCBGar14nM-19" value="PC-PT&lt;br&gt;PC2&lt;br&gt;192.168.20.6" style="shape=mxgraph.cisco.computers_and_peripherals.pc;sketch=0;html=1;pointerEvents=1;dashed=0;fillColor=#036897;strokeColor=#ffffff;strokeWidth=2;verticalLabelPosition=bottom;verticalAlign=top;align=center;outlineConnect=0;" vertex="1" parent="1">
          <mxGeometry x="1310" y="568" width="78" height="70" as="geometry" />
        </mxCell>
        <mxCell id="QoExW9OHOlBCBGar14nM-20" value="PC-PT&lt;br&gt;PC3&lt;br&gt;192.168.20.5" style="shape=mxgraph.cisco.computers_and_peripherals.pc;sketch=0;html=1;pointerEvents=1;dashed=0;fillColor=#036897;strokeColor=#ffffff;strokeWidth=2;verticalLabelPosition=bottom;verticalAlign=top;align=center;outlineConnect=0;" vertex="1" parent="1">
          <mxGeometry x="1122" y="568" width="78" height="70" as="geometry" />
        </mxCell>
        <mxCell id="QoExW9OHOlBCBGar14nM-21" value="7960&lt;br&gt;IP Phone3&lt;br&gt;192.168.21.6&lt;br&gt;ramal 201" style="shape=mxgraph.cisco.modems_and_phones.ip_phone;sketch=0;html=1;pointerEvents=1;dashed=0;fillColor=#036897;strokeColor=#ffffff;strokeWidth=2;verticalLabelPosition=bottom;verticalAlign=top;align=center;outlineConnect=0;" vertex="1" parent="1">
          <mxGeometry x="1270" y="300" width="90" height="50" as="geometry" />
        </mxCell>
        <mxCell id="QoExW9OHOlBCBGar14nM-22" value="7960&lt;br&gt;IP Phone2&lt;br&gt;192.168.21.5&lt;br&gt;ramal 200" style="shape=mxgraph.cisco.modems_and_phones.ip_phone;sketch=0;html=1;pointerEvents=1;dashed=0;fillColor=#036897;strokeColor=#ffffff;strokeWidth=2;verticalLabelPosition=bottom;verticalAlign=top;align=center;outlineConnect=0;" vertex="1" parent="1">
          <mxGeometry x="1078" y="300" width="90" height="50" as="geometry" />
        </mxCell>
        <mxCell id="QoExW9OHOlBCBGar14nM-23" value="SMARTPHONE-PT&lt;br&gt;Smartphone" style="shape=mxgraph.cisco.modems_and_phones.cell_phone;sketch=0;html=1;pointerEvents=1;dashed=0;fillColor=#036897;strokeColor=#ffffff;strokeWidth=2;verticalLabelPosition=bottom;verticalAlign=top;align=center;outlineConnect=0;" vertex="1" parent="1">
          <mxGeometry x="1463" y="610" width="34" height="58" as="geometry" />
        </mxCell>
        <mxCell id="QoExW9OHOlBCBGar14nM-24" value="SMARTPHONE-PT&lt;br&gt;Smartphone" style="shape=mxgraph.cisco.modems_and_phones.cell_phone;sketch=0;html=1;pointerEvents=1;dashed=0;fillColor=#036897;strokeColor=#ffffff;strokeWidth=2;verticalLabelPosition=bottom;verticalAlign=top;align=center;outlineConnect=0;" vertex="1" parent="1">
          <mxGeometry x="1463" y="250" width="34" height="58" as="geometry" />
        </mxCell>
        <mxCell id="QoExW9OHOlBCBGar14nM-60" style="rounded=0;orthogonalLoop=1;jettySize=auto;html=1;dashed=1;endArrow=none;endFill=0;exitX=1;exitY=0.5;exitDx=0;exitDy=0;exitPerimeter=0;" edge="1" parent="1" source="QoExW9OHOlBCBGar14nM-25" target="QoExW9OHOlBCBGar14nM-16">
          <mxGeometry relative="1" as="geometry" />
        </mxCell>
        <mxCell id="QoExW9OHOlBCBGar14nM-82" style="rounded=0;orthogonalLoop=1;jettySize=auto;html=1;endArrow=none;endFill=0;" edge="1" parent="1" source="QoExW9OHOlBCBGar14nM-25" target="QoExW9OHOlBCBGar14nM-27">
          <mxGeometry relative="1" as="geometry" />
        </mxCell>
        <mxCell id="QoExW9OHOlBCBGar14nM-25" value="2811&lt;br&gt;Router2" style="shape=mxgraph.cisco.routers.router;sketch=0;html=1;pointerEvents=1;dashed=0;fillColor=#036897;strokeColor=#ffffff;strokeWidth=2;verticalLabelPosition=bottom;verticalAlign=top;align=center;outlineConnect=0;" vertex="1" parent="1">
          <mxGeometry x="867" y="686" width="78" height="53" as="geometry" />
        </mxCell>
        <mxCell id="QoExW9OHOlBCBGar14nM-26" value="AccessPoint-PT&lt;br&gt;Access Point2&lt;br&gt;SSID: rede3" style="shape=mxgraph.cisco.misc.access_point;sketch=0;html=1;pointerEvents=1;dashed=0;fillColor=#036897;strokeColor=#ffffff;strokeWidth=2;verticalLabelPosition=bottom;verticalAlign=top;align=center;outlineConnect=0;" vertex="1" parent="1">
          <mxGeometry x="872" y="1060" width="60" height="30" as="geometry" />
        </mxCell>
        <mxCell id="QoExW9OHOlBCBGar14nM-27" value="2950-24&lt;br&gt;Switch2&lt;br&gt;" style="shape=mxgraph.cisco.switches.workgroup_switch;sketch=0;html=1;pointerEvents=1;dashed=0;fillColor=#036897;strokeColor=#ffffff;strokeWidth=2;verticalLabelPosition=bottom;verticalAlign=top;align=center;outlineConnect=0;" vertex="1" parent="1">
          <mxGeometry x="871" y="920" width="70" height="30" as="geometry" />
        </mxCell>
        <mxCell id="QoExW9OHOlBCBGar14nM-28" value="PC-PT&lt;br&gt;PC5&lt;br&gt;192.168.30.3" style="shape=mxgraph.cisco.computers_and_peripherals.pc;sketch=0;html=1;pointerEvents=1;dashed=0;fillColor=#036897;strokeColor=#ffffff;strokeWidth=2;verticalLabelPosition=bottom;verticalAlign=top;align=center;outlineConnect=0;" vertex="1" parent="1">
          <mxGeometry x="1000" y="800" width="78" height="70" as="geometry" />
        </mxCell>
        <mxCell id="QoExW9OHOlBCBGar14nM-29" value="PC-PT&lt;br&gt;PC4&lt;br&gt;192.168.30.2" style="shape=mxgraph.cisco.computers_and_peripherals.pc;sketch=0;html=1;pointerEvents=1;dashed=0;fillColor=#036897;strokeColor=#ffffff;strokeWidth=2;verticalLabelPosition=bottom;verticalAlign=top;align=center;outlineConnect=0;" vertex="1" parent="1">
          <mxGeometry x="730" y="810" width="78" height="70" as="geometry" />
        </mxCell>
        <mxCell id="QoExW9OHOlBCBGar14nM-30" value="7960&lt;br&gt;IP Phone4&lt;br&gt;192.168.31.2&lt;br&gt;ramal 300" style="shape=mxgraph.cisco.modems_and_phones.ip_phone;sketch=0;html=1;pointerEvents=1;dashed=0;fillColor=#036897;strokeColor=#ffffff;strokeWidth=2;verticalLabelPosition=bottom;verticalAlign=top;align=center;outlineConnect=0;" vertex="1" parent="1">
          <mxGeometry x="700" y="960" width="90" height="50" as="geometry" />
        </mxCell>
        <mxCell id="QoExW9OHOlBCBGar14nM-31" value="7960&lt;br&gt;IP Phone5&lt;br&gt;192.168.31.3&lt;br&gt;ramal 301" style="shape=mxgraph.cisco.modems_and_phones.ip_phone;sketch=0;html=1;pointerEvents=1;dashed=0;fillColor=#036897;strokeColor=#ffffff;strokeWidth=2;verticalLabelPosition=bottom;verticalAlign=top;align=center;outlineConnect=0;" vertex="1" parent="1">
          <mxGeometry x="1020" y="950" width="90" height="50" as="geometry" />
        </mxCell>
        <mxCell id="QoExW9OHOlBCBGar14nM-32" value="SMARTPHONE-PT&lt;br&gt;Smartphone&lt;br&gt;" style="shape=mxgraph.cisco.modems_and_phones.cell_phone;sketch=0;html=1;pointerEvents=1;dashed=0;fillColor=#036897;strokeColor=#ffffff;strokeWidth=2;verticalLabelPosition=bottom;verticalAlign=top;align=center;outlineConnect=0;" vertex="1" parent="1">
          <mxGeometry x="1060" y="1100" width="34" height="58" as="geometry" />
        </mxCell>
        <mxCell id="QoExW9OHOlBCBGar14nM-33" value="SMARTPHONE-PT&lt;br&gt;Smartphone1" style="shape=mxgraph.cisco.modems_and_phones.cell_phone;sketch=0;html=1;pointerEvents=1;dashed=0;fillColor=#036897;strokeColor=#ffffff;strokeWidth=2;verticalLabelPosition=bottom;verticalAlign=top;align=center;outlineConnect=0;" vertex="1" parent="1">
          <mxGeometry x="728" y="1100" width="34" height="58" as="geometry" />
        </mxCell>
        <mxCell id="QoExW9OHOlBCBGar14nM-34" value="vlan dados 10&#xa;rede: 192.168.10.0&#xa;máscara: 255.255.255.0&#xa;gateway: 192.168.10.1&#xa;" style="text;whiteSpace=wrap;fontSize=15;" vertex="1" parent="1">
          <mxGeometry x="150" y="140" width="175.5" height="90" as="geometry" />
        </mxCell>
        <mxCell id="QoExW9OHOlBCBGar14nM-35" value="vlan voz 11&#xa;rede: 192.168.11.0&#xa;máscara: 255.255.255.0&#xa;gateway: 192.168.11.1&#xa;DHCP: 192.168.10.2" style="text;whiteSpace=wrap;fontSize=15;" vertex="1" parent="1">
          <mxGeometry x="590" y="133" width="190" height="104" as="geometry" />
        </mxCell>
        <mxCell id="QoExW9OHOlBCBGar14nM-38" style="rounded=0;orthogonalLoop=1;jettySize=auto;html=1;entryX=0.98;entryY=0.5;entryDx=0;entryDy=0;entryPerimeter=0;endArrow=none;endFill=0;" edge="1" parent="1" source="QoExW9OHOlBCBGar14nM-15" target="QoExW9OHOlBCBGar14nM-7">
          <mxGeometry relative="1" as="geometry" />
        </mxCell>
        <mxCell id="QoExW9OHOlBCBGar14nM-40" value="0/0" style="text;html=1;align=center;verticalAlign=middle;resizable=0;points=[];autosize=1;strokeColor=none;fillColor=none;" vertex="1" parent="1">
          <mxGeometry x="701" y="450" width="40" height="30" as="geometry" />
        </mxCell>
        <mxCell id="QoExW9OHOlBCBGar14nM-41" value="0/1" style="text;html=1;align=center;verticalAlign=middle;resizable=0;points=[];autosize=1;strokeColor=none;fillColor=none;" vertex="1" parent="1">
          <mxGeometry x="496.5" y="453" width="40" height="30" as="geometry" />
        </mxCell>
        <mxCell id="QoExW9OHOlBCBGar14nM-42" style="rounded=0;orthogonalLoop=1;jettySize=auto;html=1;entryX=0;entryY=0.5;entryDx=0;entryDy=0;entryPerimeter=0;endArrow=none;endFill=0;" edge="1" parent="1" source="QoExW9OHOlBCBGar14nM-7" target="QoExW9OHOlBCBGar14nM-5">
          <mxGeometry relative="1" as="geometry" />
        </mxCell>
        <mxCell id="QoExW9OHOlBCBGar14nM-43" value="0/4" style="text;html=1;align=center;verticalAlign=middle;resizable=0;points=[];autosize=1;strokeColor=none;fillColor=none;" vertex="1" parent="1">
          <mxGeometry x="480" y="410" width="40" height="30" as="geometry" />
        </mxCell>
        <mxCell id="QoExW9OHOlBCBGar14nM-44" style="rounded=0;orthogonalLoop=1;jettySize=auto;html=1;entryX=0.5;entryY=1;entryDx=0;entryDy=0;entryPerimeter=0;endArrow=none;endFill=0;" edge="1" parent="1" source="QoExW9OHOlBCBGar14nM-7" target="QoExW9OHOlBCBGar14nM-4">
          <mxGeometry relative="1" as="geometry" />
        </mxCell>
        <mxCell id="QoExW9OHOlBCBGar14nM-45" value="0/3" style="text;html=1;align=center;verticalAlign=middle;resizable=0;points=[];autosize=1;strokeColor=none;fillColor=none;" vertex="1" parent="1">
          <mxGeometry x="431.5" y="410" width="40" height="30" as="geometry" />
        </mxCell>
        <mxCell id="QoExW9OHOlBCBGar14nM-47" value="0/2" style="text;html=1;align=center;verticalAlign=middle;resizable=0;points=[];autosize=1;strokeColor=none;fillColor=none;" vertex="1" parent="1">
          <mxGeometry x="386.5" y="410" width="40" height="30" as="geometry" />
        </mxCell>
        <mxCell id="QoExW9OHOlBCBGar14nM-49" value="0/7" style="text;html=1;align=center;verticalAlign=middle;resizable=0;points=[];autosize=1;strokeColor=none;fillColor=none;" vertex="1" parent="1">
          <mxGeometry x="374.5" y="451.5" width="40" height="30" as="geometry" />
        </mxCell>
        <mxCell id="QoExW9OHOlBCBGar14nM-51" value="0/9" style="text;html=1;align=center;verticalAlign=middle;resizable=0;points=[];autosize=1;strokeColor=none;fillColor=none;" vertex="1" parent="1">
          <mxGeometry x="380" y="504" width="40" height="30" as="geometry" />
        </mxCell>
        <mxCell id="QoExW9OHOlBCBGar14nM-52" value="0/8" style="text;html=1;align=center;verticalAlign=middle;resizable=0;points=[];autosize=1;strokeColor=none;fillColor=none;" vertex="1" parent="1">
          <mxGeometry x="420" y="520" width="40" height="30" as="geometry" />
        </mxCell>
        <mxCell id="QoExW9OHOlBCBGar14nM-53" value="0/5" style="text;html=1;align=center;verticalAlign=middle;resizable=0;points=[];autosize=1;strokeColor=none;fillColor=none;" vertex="1" parent="1">
          <mxGeometry x="511" y="492.5" width="40" height="30" as="geometry" />
        </mxCell>
        <mxCell id="QoExW9OHOlBCBGar14nM-54" value="0/6" style="text;html=1;align=center;verticalAlign=middle;resizable=0;points=[];autosize=1;strokeColor=none;fillColor=none;" vertex="1" parent="1">
          <mxGeometry x="490" y="510" width="40" height="30" as="geometry" />
        </mxCell>
        <mxCell id="QoExW9OHOlBCBGar14nM-59" style="rounded=0;orthogonalLoop=1;jettySize=auto;html=1;entryX=0;entryY=0.5;entryDx=0;entryDy=0;entryPerimeter=0;dashed=1;endArrow=none;endFill=0;" edge="1" parent="1" source="QoExW9OHOlBCBGar14nM-15" target="QoExW9OHOlBCBGar14nM-25">
          <mxGeometry relative="1" as="geometry" />
        </mxCell>
        <mxCell id="QoExW9OHOlBCBGar14nM-61" value="0/1" style="text;html=1;align=center;verticalAlign=middle;resizable=0;points=[];autosize=1;strokeColor=none;fillColor=none;" vertex="1" parent="1">
          <mxGeometry x="832" y="450" width="40" height="30" as="geometry" />
        </mxCell>
        <mxCell id="QoExW9OHOlBCBGar14nM-62" value="0/1" style="text;html=1;align=center;verticalAlign=middle;resizable=0;points=[];autosize=1;strokeColor=none;fillColor=none;" vertex="1" parent="1">
          <mxGeometry x="950" y="450" width="40" height="30" as="geometry" />
        </mxCell>
        <mxCell id="QoExW9OHOlBCBGar14nM-63" value="1/0" style="text;html=1;align=center;verticalAlign=middle;resizable=0;points=[];autosize=1;strokeColor=none;fillColor=none;" vertex="1" parent="1">
          <mxGeometry x="800" y="510" width="40" height="30" as="geometry" />
        </mxCell>
        <mxCell id="QoExW9OHOlBCBGar14nM-64" value="0/1" style="text;html=1;align=center;verticalAlign=middle;resizable=0;points=[];autosize=1;strokeColor=none;fillColor=none;" vertex="1" parent="1">
          <mxGeometry x="850" y="656" width="40" height="30" as="geometry" />
        </mxCell>
        <mxCell id="QoExW9OHOlBCBGar14nM-65" value="1/0" style="text;html=1;align=center;verticalAlign=middle;resizable=0;points=[];autosize=1;strokeColor=none;fillColor=none;" vertex="1" parent="1">
          <mxGeometry x="920" y="650" width="40" height="30" as="geometry" />
        </mxCell>
        <mxCell id="QoExW9OHOlBCBGar14nM-66" value="1/0" style="text;html=1;align=center;verticalAlign=middle;resizable=0;points=[];autosize=1;strokeColor=none;fillColor=none;" vertex="1" parent="1">
          <mxGeometry x="970" y="510" width="40" height="30" as="geometry" />
        </mxCell>
        <mxCell id="QoExW9OHOlBCBGar14nM-68" value="0/0" style="text;html=1;align=center;verticalAlign=middle;resizable=0;points=[];autosize=1;strokeColor=none;fillColor=none;" vertex="1" parent="1">
          <mxGeometry x="1070" y="451.5" width="40" height="30" as="geometry" />
        </mxCell>
        <mxCell id="QoExW9OHOlBCBGar14nM-70" value="0/1" style="text;html=1;align=center;verticalAlign=middle;resizable=0;points=[];autosize=1;strokeColor=none;fillColor=none;" vertex="1" parent="1">
          <mxGeometry x="1180" y="450" width="40" height="30" as="geometry" />
        </mxCell>
        <mxCell id="QoExW9OHOlBCBGar14nM-71" value="0/2" style="text;html=1;align=center;verticalAlign=middle;resizable=0;points=[];autosize=1;strokeColor=none;fillColor=none;" vertex="1" parent="1">
          <mxGeometry x="1200" y="504" width="40" height="30" as="geometry" />
        </mxCell>
        <mxCell id="QoExW9OHOlBCBGar14nM-72" style="rounded=0;orthogonalLoop=1;jettySize=auto;html=1;entryX=0.83;entryY=0.5;entryDx=0;entryDy=0;entryPerimeter=0;endArrow=none;endFill=0;" edge="1" parent="1" source="QoExW9OHOlBCBGar14nM-18" target="QoExW9OHOlBCBGar14nM-20">
          <mxGeometry relative="1" as="geometry" />
        </mxCell>
        <mxCell id="QoExW9OHOlBCBGar14nM-75" value="0/3" style="text;html=1;align=center;verticalAlign=middle;resizable=0;points=[];autosize=1;strokeColor=none;fillColor=none;" vertex="1" parent="1">
          <mxGeometry x="1280" y="504" width="40" height="30" as="geometry" />
        </mxCell>
        <mxCell id="QoExW9OHOlBCBGar14nM-76" style="rounded=0;orthogonalLoop=1;jettySize=auto;html=1;entryX=0;entryY=0.5;entryDx=0;entryDy=0;entryPerimeter=0;endArrow=none;endFill=0;" edge="1" parent="1" source="QoExW9OHOlBCBGar14nM-18" target="QoExW9OHOlBCBGar14nM-17">
          <mxGeometry relative="1" as="geometry" />
        </mxCell>
        <mxCell id="QoExW9OHOlBCBGar14nM-78" value="0/4" style="text;html=1;align=center;verticalAlign=middle;resizable=0;points=[];autosize=1;strokeColor=none;fillColor=none;" vertex="1" parent="1">
          <mxGeometry x="1210" y="425" width="40" height="30" as="geometry" />
        </mxCell>
        <mxCell id="QoExW9OHOlBCBGar14nM-80" value="0/5" style="text;html=1;align=center;verticalAlign=middle;resizable=0;points=[];autosize=1;strokeColor=none;fillColor=none;" vertex="1" parent="1">
          <mxGeometry x="1270" y="421" width="40" height="30" as="geometry" />
        </mxCell>
        <mxCell id="QoExW9OHOlBCBGar14nM-81" value="0/6" style="text;html=1;align=center;verticalAlign=middle;resizable=0;points=[];autosize=1;strokeColor=none;fillColor=none;" vertex="1" parent="1">
          <mxGeometry x="1310" y="453" width="40" height="30" as="geometry" />
        </mxCell>
        <mxCell id="QoExW9OHOlBCBGar14nM-83" value="0/1" style="text;html=1;align=center;verticalAlign=middle;resizable=0;points=[];autosize=1;strokeColor=none;fillColor=none;" vertex="1" parent="1">
          <mxGeometry x="880" y="860" width="40" height="30" as="geometry" />
        </mxCell>
        <mxCell id="QoExW9OHOlBCBGar14nM-84" value="0/0" style="text;html=1;align=center;verticalAlign=middle;resizable=0;points=[];autosize=1;strokeColor=none;fillColor=none;" vertex="1" parent="1">
          <mxGeometry x="901" y="770" width="40" height="30" as="geometry" />
        </mxCell>
        <mxCell id="QoExW9OHOlBCBGar14nM-85" style="rounded=0;orthogonalLoop=1;jettySize=auto;html=1;entryX=0.83;entryY=0.5;entryDx=0;entryDy=0;entryPerimeter=0;endArrow=none;endFill=0;" edge="1" parent="1" source="QoExW9OHOlBCBGar14nM-27" target="QoExW9OHOlBCBGar14nM-29">
          <mxGeometry relative="1" as="geometry" />
        </mxCell>
        <mxCell id="QoExW9OHOlBCBGar14nM-86" style="rounded=0;orthogonalLoop=1;jettySize=auto;html=1;entryX=0.16;entryY=0.5;entryDx=0;entryDy=0;entryPerimeter=0;endArrow=none;endFill=0;" edge="1" parent="1" source="QoExW9OHOlBCBGar14nM-27" target="QoExW9OHOlBCBGar14nM-28">
          <mxGeometry relative="1" as="geometry" />
        </mxCell>
        <mxCell id="QoExW9OHOlBCBGar14nM-87" style="rounded=0;orthogonalLoop=1;jettySize=auto;html=1;entryX=0.055;entryY=0.5;entryDx=0;entryDy=0;entryPerimeter=0;endArrow=none;endFill=0;" edge="1" parent="1" source="QoExW9OHOlBCBGar14nM-27" target="QoExW9OHOlBCBGar14nM-31">
          <mxGeometry relative="1" as="geometry" />
        </mxCell>
        <mxCell id="QoExW9OHOlBCBGar14nM-88" style="rounded=0;orthogonalLoop=1;jettySize=auto;html=1;entryX=1;entryY=0.5;entryDx=0;entryDy=0;entryPerimeter=0;endArrow=none;endFill=0;" edge="1" parent="1" source="QoExW9OHOlBCBGar14nM-27" target="QoExW9OHOlBCBGar14nM-30">
          <mxGeometry relative="1" as="geometry" />
        </mxCell>
        <mxCell id="QoExW9OHOlBCBGar14nM-89" style="rounded=0;orthogonalLoop=1;jettySize=auto;html=1;entryX=0.5;entryY=0;entryDx=0;entryDy=0;entryPerimeter=0;endArrow=none;endFill=0;" edge="1" parent="1" source="QoExW9OHOlBCBGar14nM-27" target="QoExW9OHOlBCBGar14nM-26">
          <mxGeometry relative="1" as="geometry" />
        </mxCell>
        <mxCell id="QoExW9OHOlBCBGar14nM-90" value="0/2" style="text;html=1;align=center;verticalAlign=middle;resizable=0;points=[];autosize=1;strokeColor=none;fillColor=none;" vertex="1" parent="1">
          <mxGeometry x="850" y="880" width="40" height="30" as="geometry" />
        </mxCell>
        <mxCell id="QoExW9OHOlBCBGar14nM-91" value="0/3" style="text;html=1;align=center;verticalAlign=middle;resizable=0;points=[];autosize=1;strokeColor=none;fillColor=none;" vertex="1" parent="1">
          <mxGeometry x="930" y="900" width="40" height="30" as="geometry" />
        </mxCell>
        <mxCell id="QoExW9OHOlBCBGar14nM-92" value="0/6" style="text;html=1;align=center;verticalAlign=middle;resizable=0;points=[];autosize=1;strokeColor=none;fillColor=none;" vertex="1" parent="1">
          <mxGeometry x="941" y="945" width="40" height="30" as="geometry" />
        </mxCell>
        <mxCell id="QoExW9OHOlBCBGar14nM-93" value="0/4" style="text;html=1;align=center;verticalAlign=middle;resizable=0;points=[];autosize=1;strokeColor=none;fillColor=none;" vertex="1" parent="1">
          <mxGeometry x="872" y="990" width="40" height="30" as="geometry" />
        </mxCell>
        <mxCell id="QoExW9OHOlBCBGar14nM-94" value="0/5" style="text;html=1;align=center;verticalAlign=middle;resizable=0;points=[];autosize=1;strokeColor=none;fillColor=none;" vertex="1" parent="1">
          <mxGeometry x="831" y="940" width="40" height="30" as="geometry" />
        </mxCell>
        <mxCell id="QoExW9OHOlBCBGar14nM-96" value="" style="shape=mxgraph.arrows2.wedgeArrowDashed2;html=1;bendable=0;startWidth=29.411764705882355;stepSize=15;rounded=0;exitX=0.091;exitY=0.219;exitDx=0;exitDy=0;exitPerimeter=0;" edge="1" parent="1" source="1c7a67bf8fd3230f-83">
          <mxGeometry width="100" height="100" relative="1" as="geometry">
            <mxPoint x="190" y="430" as="sourcePoint" />
            <mxPoint x="197" y="483" as="targetPoint" />
          </mxGeometry>
        </mxCell>
        <mxCell id="QoExW9OHOlBCBGar14nM-97" value="" style="shape=mxgraph.arrows2.wedgeArrowDashed2;html=1;bendable=0;startWidth=29.411764705882355;stepSize=15;rounded=0;exitX=1;exitY=0;exitDx=0;exitDy=0;exitPerimeter=0;" edge="1" parent="1" source="QoExW9OHOlBCBGar14nM-14" target="QoExW9OHOlBCBGar14nM-6">
          <mxGeometry width="100" height="100" relative="1" as="geometry">
            <mxPoint x="190" y="360" as="sourcePoint" />
            <mxPoint x="207" y="493" as="targetPoint" />
          </mxGeometry>
        </mxCell>
        <mxCell id="QoExW9OHOlBCBGar14nM-105" value="" style="shape=mxgraph.arrows2.wedgeArrowDashed2;html=1;bendable=0;startWidth=27.058823529411768;stepSize=15;rounded=0;" edge="1" parent="1">
          <mxGeometry width="100" height="100" relative="1" as="geometry">
            <mxPoint x="780" y="1130" as="sourcePoint" />
            <mxPoint x="890" y="1090" as="targetPoint" />
          </mxGeometry>
        </mxCell>
        <mxCell id="QoExW9OHOlBCBGar14nM-107" value="" style="shape=mxgraph.arrows2.wedgeArrowDashed2;html=1;bendable=0;startWidth=30.588235294117645;stepSize=15;rounded=0;" edge="1" parent="1">
          <mxGeometry width="100" height="100" relative="1" as="geometry">
            <mxPoint x="1031" y="1130" as="sourcePoint" />
            <mxPoint x="941" y="1080" as="targetPoint" />
          </mxGeometry>
        </mxCell>
        <mxCell id="QoExW9OHOlBCBGar14nM-108" value="" style="shape=mxgraph.arrows2.wedgeArrowDashed2;html=1;bendable=0;startWidth=31.764705882352942;stepSize=15;rounded=0;" edge="1" parent="1">
          <mxGeometry width="100" height="100" relative="1" as="geometry">
            <mxPoint x="1490" y="360" as="sourcePoint" />
            <mxPoint x="1493" y="462.5" as="targetPoint" />
          </mxGeometry>
        </mxCell>
        <mxCell id="QoExW9OHOlBCBGar14nM-109" value="" style="shape=mxgraph.arrows2.wedgeArrowDashed2;html=1;bendable=0;startWidth=30.588235294117645;stepSize=15;rounded=0;exitX=0.5;exitY=0;exitDx=0;exitDy=0;exitPerimeter=0;" edge="1" parent="1" source="QoExW9OHOlBCBGar14nM-23">
          <mxGeometry width="100" height="100" relative="1" as="geometry">
            <mxPoint x="1490" y="630" as="sourcePoint" />
            <mxPoint x="1480" y="530" as="targetPoint" />
          </mxGeometry>
        </mxCell>
        <mxCell id="QoExW9OHOlBCBGar14nM-110" value="1.0.0.1 &lt;br&gt;255.0.0.0" style="text;html=1;align=center;verticalAlign=middle;resizable=0;points=[];autosize=1;strokeColor=none;fillColor=none;" vertex="1" parent="1">
          <mxGeometry x="820" y="410" width="70" height="40" as="geometry" />
        </mxCell>
        <mxCell id="QoExW9OHOlBCBGar14nM-111" value="2.0.0.1&lt;br&gt;255.0.0.0" style="text;html=1;align=center;verticalAlign=middle;resizable=0;points=[];autosize=1;strokeColor=none;fillColor=none;" vertex="1" parent="1">
          <mxGeometry x="800" y="534" width="70" height="40" as="geometry" />
        </mxCell>
        <mxCell id="QoExW9OHOlBCBGar14nM-113" value="vlan dados 20&#xa;rede: 192.168.20.0&#xa;máscara: 255.255.255.0&#xa;gateway: 192.168.20.1&#xa;dhcp: 192.168.10.2 [da rede1]&#xa;broadcast: 192.168.20.255" style="text;whiteSpace=wrap;fontSize=15;" vertex="1" parent="1">
          <mxGeometry x="1010" y="110" width="210" height="100" as="geometry" />
        </mxCell>
        <mxCell id="QoExW9OHOlBCBGar14nM-114" value="vlan voz 21&#xa;rede: 192.168.21.0&#xa;máscara: 255.255.255.0&#xa;gateway: 192.168.21.1&#xa;dhcp: 192.168.10.2 [da rede1]&#xa;broadcast voz: 192.168.21.255" style="text;whiteSpace=wrap;fontSize=15;" vertex="1" parent="1">
          <mxGeometry x="1350" y="106" width="230" height="100" as="geometry" />
        </mxCell>
        <mxCell id="QoExW9OHOlBCBGar14nM-115" value="1.0.0.2&lt;br&gt;255.0.0.0" style="text;html=1;align=center;verticalAlign=middle;resizable=0;points=[];autosize=1;strokeColor=none;fillColor=none;" vertex="1" parent="1">
          <mxGeometry x="932" y="410" width="70" height="40" as="geometry" />
        </mxCell>
        <mxCell id="QoExW9OHOlBCBGar14nM-116" value="3.0.0.1&lt;br&gt;255.0.0.0" style="text;html=1;align=center;verticalAlign=middle;resizable=0;points=[];autosize=1;strokeColor=none;fillColor=none;" vertex="1" parent="1">
          <mxGeometry x="932" y="530" width="70" height="40" as="geometry" />
        </mxCell>
        <mxCell id="QoExW9OHOlBCBGar14nM-117" value="vlan dados 30&#xa;rede: 192.168.30.0&#xa;máscara: 255.255.255.0&#xa;gateway: 192.168.30.1&#xa;dhcp: 192.168.30.1&#xa;broadcast: 192.168.30.255" style="text;whiteSpace=wrap;fontSize=15;align=right;" vertex="1" parent="1">
          <mxGeometry x="436.5" y="785" width="240" height="100" as="geometry" />
        </mxCell>
        <mxCell id="QoExW9OHOlBCBGar14nM-118" value="vlan voz 31&#xa;rede: 192.168.31.0&#xa;máscara: 255.255.255.0&#xa;gateway: 192.168.31.1&#xa;dhcp: 192.168.30.1&#xa;broadcast voz: 192.168.31.255" style="text;whiteSpace=wrap;fontSize=15;align=right;" vertex="1" parent="1">
          <mxGeometry x="460" y="925" width="216.5" height="100" as="geometry" />
        </mxCell>
        <mxCell id="QoExW9OHOlBCBGar14nM-119" value="2.0.0.2&lt;br&gt;255.0.0.0" style="text;html=1;align=center;verticalAlign=middle;resizable=0;points=[];autosize=1;strokeColor=none;fillColor=none;" vertex="1" parent="1">
          <mxGeometry x="790" y="645" width="70" height="40" as="geometry" />
        </mxCell>
        <mxCell id="QoExW9OHOlBCBGar14nM-120" value="3.0.0.2&lt;br&gt;255.0.0.0" style="text;html=1;align=center;verticalAlign=middle;resizable=0;points=[];autosize=1;strokeColor=none;fillColor=none;" vertex="1" parent="1">
          <mxGeometry x="940" y="680" width="70" height="40" as="geometry" />
        </mxCell>
        <mxCell id="QoExW9OHOlBCBGar14nM-124" value="&lt;span style=&quot;color: rgb(0, 0, 0); font-family: Helvetica; font-size: 15px; font-style: normal; font-variant-ligatures: normal; font-variant-caps: normal; font-weight: 400; letter-spacing: normal; orphans: 2; text-align: left; text-indent: 0px; text-transform: none; widows: 2; word-spacing: 0px; -webkit-text-stroke-width: 0px; background-color: rgb(251, 251, 251); text-decoration-thickness: initial; text-decoration-style: initial; text-decoration-color: initial; float: none; display: inline !important;&quot;&gt;DHCP: 192.168.10.2&lt;/span&gt;&lt;br style=&quot;border-color: var(--border-color); padding: 0px; margin: 0px; color: rgb(0, 0, 0); font-family: Helvetica; font-size: 15px; font-style: normal; font-variant-ligatures: normal; font-variant-caps: normal; font-weight: 400; letter-spacing: normal; orphans: 2; text-align: left; text-indent: 0px; text-transform: none; widows: 2; word-spacing: 0px; -webkit-text-stroke-width: 0px; background-color: rgb(251, 251, 251); text-decoration-thickness: initial; text-decoration-style: initial; text-decoration-color: initial;&quot;&gt;&lt;span style=&quot;color: rgb(0, 0, 0); font-family: Helvetica; font-size: 15px; font-style: normal; font-variant-ligatures: normal; font-variant-caps: normal; font-weight: 400; letter-spacing: normal; orphans: 2; text-align: left; text-indent: 0px; text-transform: none; widows: 2; word-spacing: 0px; -webkit-text-stroke-width: 0px; background-color: rgb(251, 251, 251); text-decoration-thickness: initial; text-decoration-style: initial; text-decoration-color: initial; float: none; display: inline !important;&quot;&gt;DNS: 192.168.10.3&lt;/span&gt;&lt;br style=&quot;border-color: var(--border-color); padding: 0px; margin: 0px; color: rgb(0, 0, 0); font-family: Helvetica; font-size: 15px; font-style: normal; font-variant-ligatures: normal; font-variant-caps: normal; font-weight: 400; letter-spacing: normal; orphans: 2; text-align: left; text-indent: 0px; text-transform: none; widows: 2; word-spacing: 0px; -webkit-text-stroke-width: 0px; background-color: rgb(251, 251, 251); text-decoration-thickness: initial; text-decoration-style: initial; text-decoration-color: initial;&quot;&gt;&lt;span style=&quot;color: rgb(0, 0, 0); font-family: Helvetica; font-size: 15px; font-style: normal; font-variant-ligatures: normal; font-variant-caps: normal; font-weight: 400; letter-spacing: normal; orphans: 2; text-align: left; text-indent: 0px; text-transform: none; widows: 2; word-spacing: 0px; -webkit-text-stroke-width: 0px; background-color: rgb(251, 251, 251); text-decoration-thickness: initial; text-decoration-style: initial; text-decoration-color: initial; float: none; display: inline !important;&quot;&gt;HTTP: 192.168.10.4&lt;br&gt;broadcast: 192.168.10.255&lt;br&gt;broadcast voz: 192.168.11.255&lt;br&gt;&lt;/span&gt;" style="text;whiteSpace=wrap;html=1;" vertex="1" parent="1">
          <mxGeometry x="351.5" y="126" width="220" height="80" as="geometry" />
        </mxCell>
      </root>
    </mxGraphModel>
  </diagram>
</mxfile>
